<svg id="Layer_1" data-name="Layer 1" xmlns="http://www.w3.org/2000/svg" viewBox="0 0 1467.41 256.76"><defs><style>.cls-1{fill:none;}.cls-2{fill:#031feb;}.cls-3{fill:#fff;}</style></defs><title>logo</title><path class="cls-1" d="M92.92,43.49H280.8V231.38H92.92Z" transform="translate(-16.63 -20.11)"/><rect class="cls-2" width="256.76" height="256.76" rx="67.92" ry="67.92"/><path class="cls-3" d="M203.8,218.08H92.46a7,7,0,0,1-7-7V85.86a7,7,0,0,1,7-7H203.8a7,7,0,0,1,7,7V211.12A7,7,0,0,1,203.8,218.08Zm-7-13.92V92.82H99.42V204.16ZM120.3,113.7H176v13.92H120.3Zm0,27.83H176v13.92H120.3Zm0,27.83h34.79v13.92H120.3Z" transform="translate(-16.63 -20.11)"/><path d="M329.39,98h8.73V87q0-17.19,4.36-27.33A27.73,27.73,0,0,1,357.25,44.9q10.4-4.63,28.53-4.63,32.09,0,32.09,15.71a12.4,12.4,0,0,1-3.36,8.73,10.46,10.46,0,0,1-7.92,3.63,56.63,56.63,0,0,1-7.39-.81,59.85,59.85,0,0,0-8.86-.81q-9.94,0-12.76,5.84t-2.82,16.72V98h9q20.95,0,20.95,12.62,0,9-5.57,11.41t-15.37,2.42h-9v97.08q0,10.88-5.17,16.58a17.21,17.21,0,0,1-13.36,5.71,16.75,16.75,0,0,1-13-5.71q-5.17-5.71-5.17-16.58V124.46H328q-8.19,0-12.62-3.69a11.91,11.91,0,0,1-4.43-9.6Q311,98,329.39,98Z" transform="translate(-16.63 -20.11)"/><path d="M557.52,169.31a86.67,86.67,0,0,1-5.1,30.21,66.73,66.73,0,0,1-14.77,23.77,65.19,65.19,0,0,1-23.1,15.24,81.67,81.67,0,0,1-30.21,5.3,79.36,79.36,0,0,1-29.94-5.37,66.09,66.09,0,0,1-37.8-39,86.42,86.42,0,0,1-5-30.15,87.44,87.44,0,0,1,5.1-30.48,66.34,66.34,0,0,1,14.64-23.63,64.55,64.55,0,0,1,23.1-15.11,87.42,87.42,0,0,1,60.16.07,65,65,0,0,1,37.93,38.94A87,87,0,0,1,557.52,169.31Zm-36.79,0q0-22.42-9.87-34.91t-26.52-12.49a32.85,32.85,0,0,0-18.93,5.57q-8.19,5.57-12.62,16.45t-4.43,25.38q0,14.37,4.36,25.11t12.49,16.45a32.42,32.42,0,0,0,19.13,5.71q16.65,0,26.52-12.55T520.73,169.31Z" transform="translate(-16.63 -20.11)"/><path d="M622.78,190.92v30.62q0,11.15-5.24,16.72a17.46,17.46,0,0,1-13.29,5.57,16.78,16.78,0,0,1-13-5.64q-5.1-5.64-5.1-16.65V119.49q0-24.7,17.86-24.71,9.13,0,13.16,5.77t4.43,17.05q6.58-11.28,13.5-17.05t18.46-5.77A47.28,47.28,0,0,1,676,100.56q10.88,5.77,10.88,15.31a14.56,14.56,0,0,1-4.63,11.08,14.37,14.37,0,0,1-10,4.36q-2,0-9.74-2.48a45.3,45.3,0,0,0-13.63-2.48q-8.06,0-13.16,4.23t-7.92,12.55a87.58,87.58,0,0,0-3.89,19.81Q622.78,174.41,622.78,190.92Z" transform="translate(-16.63 -20.11)"/><path d="M828.76,172v48.74q0,11.55-5.24,17.32t-13.83,5.77a17.26,17.26,0,0,1-13.49-5.77Q791,232.29,791,220.74V162.32a188,188,0,0,0-.94-21.48,23.3,23.3,0,0,0-5.1-12.55q-4.16-4.9-13.16-4.9-18,0-23.7,12.35t-5.71,35.45v49.55q0,11.41-5.17,17.25a17.32,17.32,0,0,1-13.63,5.84A17.57,17.57,0,0,1,710,238q-5.31-5.84-5.3-17.25V115.86q0-10.34,4.77-15.71A16,16,0,0,1,722,94.78a17,17,0,0,1,12.55,5q5,5,5,13.9v3.49q9.53-11.41,20.41-16.78a53.85,53.85,0,0,1,24.17-5.37q13.83,0,23.77,5.51a43.11,43.11,0,0,1,16.38,16.65q9.27-11.28,19.87-16.72a50.75,50.75,0,0,1,23.5-5.44q15,0,25.92,5.91a37.62,37.62,0,0,1,16.25,16.92q4.7,9.94,4.7,31.29v71.57q0,11.55-5.24,17.32t-13.83,5.77A17.57,17.57,0,0,1,881.87,238q-5.31-5.84-5.3-17.25V159.1a141.12,141.12,0,0,0-1-18.93,21.72,21.72,0,0,0-5.44-12q-4.43-4.83-13.43-4.83a24.58,24.58,0,0,0-13.76,4.3,29.18,29.18,0,0,0-10.14,11.55Q828.76,148.49,828.76,172Z" transform="translate(-16.63 -20.11)"/><path d="M947.2,98h8.73V87q0-17.19,4.36-27.33A27.73,27.73,0,0,1,975.06,44.9q10.4-4.63,28.53-4.63,32.09,0,32.09,15.71a12.4,12.4,0,0,1-3.36,8.73,10.46,10.46,0,0,1-7.92,3.63,56.63,56.63,0,0,1-7.39-.81,59.85,59.85,0,0,0-8.86-.81q-9.94,0-12.76,5.84t-2.82,16.72V98h9q20.95,0,20.95,12.62,0,9-5.57,11.41t-15.37,2.42h-9v97.08q0,10.88-5.17,16.58a17.21,17.21,0,0,1-13.36,5.71,16.75,16.75,0,0,1-13-5.71q-5.17-5.71-5.17-16.58V124.46H945.85q-8.19,0-12.62-3.69a11.91,11.91,0,0,1-4.43-9.6Q928.8,98,947.2,98Z" transform="translate(-16.63 -20.11)"/><path d="M1045.09,221.54v-159q0-11,4.9-16.65t13.23-5.64q8.32,0,13.43,5.57t5.1,16.72v159q0,11.15-5.17,16.72a17.4,17.4,0,0,1-13.36,5.57,16.56,16.56,0,0,1-13.09-5.77Q1045.08,232.29,1045.09,221.54Z" transform="translate(-16.63 -20.11)"/><path d="M1256.84,169.31a86.67,86.67,0,0,1-5.1,30.21A66.73,66.73,0,0,1,1237,223.29a65.19,65.19,0,0,1-23.1,15.24,81.67,81.67,0,0,1-30.21,5.3,79.36,79.36,0,0,1-29.94-5.37,66.09,66.09,0,0,1-37.8-39,86.42,86.42,0,0,1-5-30.15,87.44,87.44,0,0,1,5.1-30.48,66.34,66.34,0,0,1,14.64-23.63,64.55,64.55,0,0,1,23.1-15.11,87.42,87.42,0,0,1,60.16.07,65,65,0,0,1,37.93,38.94A87,87,0,0,1,1256.84,169.31Zm-36.79,0q0-22.42-9.87-34.91t-26.52-12.49a32.85,32.85,0,0,0-18.93,5.57q-8.19,5.57-12.62,16.45t-4.43,25.38q0,14.37,4.36,25.11t12.49,16.45a32.42,32.42,0,0,0,19.13,5.71q16.65,0,26.52-12.55T1220,169.31Z" transform="translate(-16.63 -20.11)"/><path d="M1308.54,117.61l23.9,81.91,21.75-76.13q3.49-12,5.17-16.31a21.23,21.23,0,0,1,6.31-8.33q4.63-4,12.69-4t12.82,4a22.64,22.64,0,0,1,6.51,8.59q1.88,4.63,5.24,16l21.75,76.13,24.17-81.91q2.42-8.86,3.89-12.82a17,17,0,0,1,5-7q3.49-3,10.07-3a16.08,16.08,0,0,1,11.41,4.57,14.32,14.32,0,0,1,4.83,10.74q0,5.64-4.16,17.05L1449.93,215q-3.9,11.15-6,16.11a24,24,0,0,1-6.78,8.86q-4.63,3.89-12.69,3.89-8.33,0-13.09-4.16a25.08,25.08,0,0,1-7-10.21q-2.29-6-5-15.71l-20.95-71.44-20.28,71.44q-4,14.9-8.73,22.49t-16.52,7.59a20.88,20.88,0,0,1-10.27-2.35,19.78,19.78,0,0,1-7-6.71,50.41,50.41,0,0,1-5-10.34q-2.15-6-3.36-9.47l-29.68-87.82q-4.43-12.35-4.43-17.05a14.64,14.64,0,0,1,4.7-10.61,15.7,15.7,0,0,1,11.55-4.7q9.13,0,12.35,5.17T1308.54,117.61Z" transform="translate(-16.63 -20.11)"/></svg>