<svg id="Layer_1" data-name="Layer 1" xmlns="http://www.w3.org/2000/svg" viewBox="0 0 469.55 456.36"><defs><style>.cls-1{fill:none;}.cls-2{fill:#031feb;}.cls-3{fill:#fff;}</style></defs><title>icon</title><path class="cls-1" d="M157.53,62.08H491.48V396H157.53Z" transform="translate(-21.93 -20.52)"/><rect class="cls-2" width="456.36" height="456.36" rx="120.72" ry="120.72"/><path class="cls-3" d="M354.61,372.38H156.72A12.37,12.37,0,0,1,144.35,360V137.39A12.37,12.37,0,0,1,156.72,125H354.61A12.37,12.37,0,0,1,367,137.39V360A12.37,12.37,0,0,1,354.61,372.38Zm-12.37-24.74V149.75H169.08V347.65ZM206.19,186.86h98.95V211.6H206.19Zm0,49.47h98.95v24.74H206.19Zm0,49.47H268v24.74H206.19Z" transform="translate(-21.93 -20.52)"/></svg>